<svg xmlns="http://www.w3.org/2000/svg" width="128" height="128" fill="none" viewBox="0 0 128 128"><rect width="128" height="128" fill="#fff"/><path fill="#333" stroke="#000" stroke-width="3" d="M126.5 62.5344C126.5 96.2101 98.5507 123.569 64 123.569C29.4493 123.569 1.5 96.2101 1.5 62.5344C1.5 28.8586 29.4493 1.5 64 1.5C98.5507 1.5 126.5 28.8586 126.5 62.5344Z"/><rect width="127" height="127" x=".5" y=".5" fill="#333" stroke="#000"/><rect width="18.563" height="10.883" x="37.699" y="82.467" fill="#C0F0F4" fill-opacity=".55"/><rect width="18.563" height="10.883" x="37.699" y="67.957" fill="#C0F0F4" fill-opacity=".55"/><rect width="18.563" height="10.883" x="37.699" y="24.427" fill="#C0F0F4" fill-opacity=".55"/><rect width="18.563" height="10.883" x="37.699" y="38.937" fill="#F0C9D7" fill-opacity=".55"/><rect width="18.563" height="10.883" x="82.249" y="38.937" fill="#F0C9D7" fill-opacity=".55"/><rect width="18.563" height="10.883" x="59.974" y="24.427" fill="#FFDDD1" fill-opacity=".55"/><rect width="18.563" height="10.883" x="82.249" y="53.447" fill="#FFDDD1" fill-opacity=".55"/><rect width="18.563" height="10.883" x="82.249" y="24.427" fill="#FFDDD1" fill-opacity=".55"/><rect width="18.563" height="10.883" x="59.974" y="52.722" fill="#D4C2E1" fill-opacity=".55"/><rect width="18.563" height="10.883" x="37.699" y="52.722" fill="#D4C2E1" fill-opacity=".55"/><rect width="18.563" height="10.883" x="28" y="93.667" fill="#C0F0F4"/><rect width="18.563" height="10.883" x="28" y="79.157" fill="#C0F0F4"/><rect width="18.563" height="10.883" x="28" y="35.627" fill="#C0F0F4"/><rect width="18.563" height="10.883" x="28" y="50.137" fill="#F0C9D7"/><rect width="18.563" height="10.883" x="72.55" y="50.137" fill="#F0C9D7"/><rect width="18.563" height="10.883" x="50.275" y="35.627" fill="#FFDDD1"/><rect width="18.563" height="10.883" x="72.55" y="64.647" fill="#FFDDD1"/><rect width="18.563" height="10.883" x="72.55" y="35.627" fill="#FFDDD1"/><rect width="18.563" height="10.883" x="50.275" y="63.922" fill="#D4C2E1"/><rect width="18.563" height="10.883" x="28" y="63.922" fill="#D4C2E1"/></svg>